<?xml version="1.0" encoding="utf-8"?>
<!-- Generator: Adobe Illustrator 22.1.0, SVG Export Plug-In . SVG Version: 6.00 Build 0)  -->
<svg version="1.1" id="Layer_1" xmlns="http://www.w3.org/2000/svg" xmlns:xlink="http://www.w3.org/1999/xlink" x="0px" y="0px"
	 viewBox="0 0 400 400" style="enable-background:new 0 0 400 400;" xml:space="preserve">
<style type="text/css">
	.st0{fill:#231F20;}
</style>
<g>
	<g>
		<path class="st0" d="M200,400c-51.2,0-102.5-19.5-141.5-58.5c-78-78-78-205,0-283l0,0c78-78,205-78,283,0c78,78,78,205,0,283
			C302.5,380.5,251.2,400,200,400z M78.2,78.2c-67.1,67.1-67.1,176.4,0,243.5c67.1,67.1,176.4,67.1,243.5,0
			c67.1-67.1,67.1-176.4,0-243.5C254.6,11.1,145.4,11.1,78.2,78.2L78.2,78.2z"/>
	</g>
	<g>
		<path class="st0" d="M121,292.9c-3.6,0-7.1-1.4-9.9-4.1c-5.5-5.5-5.5-14.3,0-19.7l157.9-157.9c5.5-5.5,14.3-5.5,19.7,0
			c5.5,5.5,5.5,14.3,0,19.7L130.9,288.8C128.2,291.6,124.6,292.9,121,292.9z"/>
	</g>
	<g>
		<path class="st0" d="M279,292.9c-3.6,0-7.1-1.4-9.9-4.1L111.2,130.9c-5.5-5.5-5.5-14.3,0-19.7c5.5-5.5,14.3-5.5,19.7,0
			l157.9,157.9c5.5,5.5,5.5,14.3,0,19.7C286.1,291.6,282.5,292.9,279,292.9z"/>
	</g>
</g>
</svg>
