<svg xmlns="http://www.w3.org/2000/svg" width="24" height="24" viewBox="0 0 24 24">
    <g id="prefix__ic_edit" transform="translate(-349 -234)">
        <path id="prefix__Rectangle_1058" d="M0 0H24V24H0z" data-name="Rectangle 1058" transform="translate(349 234)" style="fill:none"/>
        <g id="prefix__edit" transform="translate(352 236.739)">
            <path id="prefix__Path_2495" d="M16.613 48.715a.449.449 0 0 0-.448.451v4a1.35 1.35 0 0 1-1.345 1.352H2.241A1.35 1.35 0 0 1 .9 53.166V41.425a1.35 1.35 0 0 1 1.345-1.352h3.98a.451.451 0 0 0 0-.9H2.241A2.25 2.25 0 0 0 0 41.425v11.741a2.25 2.25 0 0 0 2.241 2.253H14.82a2.25 2.25 0 0 0 2.241-2.253v-4a.449.449 0 0 0-.448-.451zm0 0" data-name="Path 2495" transform="translate(0 -37.158)"/>
            <path id="prefix__Path_2496" d="M120.224.855a2.01 2.01 0 0 0-2.853 0l-8 8.038a.451.451 0 0 0-.115.2l-1.052 3.816a.452.452 0 0 0 .115.439.447.447 0 0 0 .437.116l3.8-1.057a.448.448 0 0 0 .2-.116l8-8.038a2.037 2.037 0 0 0 0-2.867zm-9.874 8.331l6.55-6.579 2.111 2.122-6.546 6.579zm-.422.85l1.687 1.7-2.333.65zm10.188-6.423l-.475.478-2.111-2.121.476-.478a1.117 1.117 0 0 1 1.585 0l.526.529a1.132 1.132 0 0 1-.001 1.593zm0 0" data-name="Path 2496" transform="translate(-103.34)" style="fill:#f9a429"/>
        </g>
    </g>
</svg>
