<svg xmlns="http://www.w3.org/2000/svg" id="prefix__ic_password" width="128" height="128" viewBox="0 0 128 128">
    <g id="prefix__ic_direct_call">
        <path id="prefix__Rectangle" d="M0 0H128V128H0z" style="fill:none"/>
        <path id="prefix__Fill-5904" d="M122.387 72.191q-1.168 2-2.493 3.894a67.434 67.434 0 0 1-21.332 15.52 80.117 80.117 0 0 1-47.471 6.161 63.448 63.448 0 0 1-10.524-2.926C28.587 90.365 17.863 82.257 11 71.467 3.532 59.742-4.277 41.416 2.743 27.839c6.558-12.2 8.13-16.12 20.449-23.126 8.477-2.939 16.395-9.774 42-4.3 11.466 4.052 18.916 7.698 23.839 15.228 2.009 3.067 3.141 6.6 4.7 9.924 5.976 12.737 21.725 11.019 30.032 21.052 6.344 7.664 3.116 17.875-1.375 25.575" transform="translate(0 9.269)" style="fill-rule:evenodd;fill:#feedd4"/>
        <g id="prefix__Group-33" transform="translate(30 13.333)">
            <g id="prefix__Group-32" transform="translate(12.332 54.883)">
                <path id="prefix__Rectangle-2" d="M8.986 9.132C8.986 4.013 14.324 0 19.662 0s10.676 3.729 10.676 9.132v9.563H8.986z" data-name="Rectangle" transform="translate(1.395)" style="stroke-width:2.4px;stroke:#000;fill-rule:evenodd;fill:none"/>
                <rect id="prefix__Rectangle-3" width="42.133" height="28.8" data-name="Rectangle" rx="6" transform="translate(0 18.717)" style="stroke:#f3a329;fill:#fff;stroke-width:2.4px"/>
                <g id="prefix__Group-30" transform="translate(7.068 30.45)">
                    <g id="prefix__Group-26">
                        <circle id="prefix__Oval" cx="2.667" cy="2.667" r="2.667" transform="translate(22.601)"/>
                        <circle id="prefix__Oval-2" cx="2.667" cy="2.667" r="2.667" data-name="Oval"/>
                        <circle id="prefix__Oval-3" cx="2.667" cy="2.667" r="2.667" data-name="Oval" transform="translate(7.534)"/>
                        <circle id="prefix__Oval-4" cx="2.667" cy="2.667" r="2.667" data-name="Oval" transform="translate(15.068)"/>
                    </g>
                </g>
            </g>
            <path id="prefix__Rectangle-4" d="M4 0h60a4 4 0 0 1 4 4v29.333A2.667 2.667 0 0 1 65.333 36H41.389a2.667 2.667 0 0 0-2.345 1.4l-3.929 7.25a1.333 1.333 0 0 1-2.315.05l-4.427-7.4a2.667 2.667 0 0 0-2.291-1.3H4a4 4 0 0 1-4-4V4a4 4 0 0 1 4-4z" data-name="Rectangle" style="fill:#fff;stroke-width:2.4px;stroke:#000;fill-rule:evenodd"/>
            <text id="prefix___" data-name="***" transform="translate(17.685 29.667)" style="fill:#f3a329;font-size:23px;font-family:IRANYekanFN-Black,IRANYekanFN;font-weight:800">
                <tspan x="0" y="0">***</tspan>
            </text>
        </g>
    </g>
</svg>
