<?xml version="1.0" encoding="utf-8"?>
<!-- Generator: Adobe Illustrator 22.1.0, SVG Export Plug-In . SVG Version: 6.00 Build 0)  -->
<svg class="sun" version="1.1" id="Layer_1" 
	xmlns="http://www.w3.org/2000/svg" 
	xmlns:xlink="http://www.w3.org/1999/xlink" x="0px" y="0px" viewBox="0 0 400 400" style="enable-background:new 0 0 400 400;" xml:space="preserve">
	<g>
		<g>
			<circle cx="194.7" cy="197" r="107.1"/>
		</g>
		<g>
			<g>
				<path d="M173.7,373.3c0.1-14.8,11.8-26.9,26.5-26.8l0,0c14.5,0,26.4,12,26.3,26.8l0,0c0.1,14.7-11.8,26.7-26.3,26.7l0,0
				c-1.6,0.1-3.2,0-4.8-0.3l0,0C183.1,397.5,173.7,386.6,173.7,373.3z M69.8,352.2c-11.2-9.6-12.6-26.4-3.3-37.7l0,0
				c9.5-11.4,26-12.9,37.2-3.3l0,0c11.2,9.4,12.6,26.4,3.3,37.7l0,0c-6.3,7.6-15.8,10.8-24.9,9.2l0,0
				C77.7,357.3,73.6,355.2,69.8,352.2z M293,348.6c-9.5-11.3-8-28.1,3.3-37.6l0,0c11.2-9.6,27.7-8.1,37.2,3.2l0,0
				c9.3,11.4,8,28.3-3.4,37.8l0,0c-6.1,5.3-14.1,7.1-21.6,5.8l0,0C302.7,356.7,297.1,353.7,293,348.6z M0.4,230.7
				c-2.6-14.6,6.9-28.5,21.3-31l0,0c14.4-2.7,28.1,7,30.8,21.6l0,0c2.5,14.6-7.1,28.5-21.5,31.1l0,0c-3.1,0.5-6.2,0.5-9.1,0l0,0
				C11.3,250.6,2.4,242.1,0.4,230.7z M347.2,222c0.1-0.5,0.2-0.9,0.2-1.4l0,0c2.5-14.6,16.2-24.5,30.5-21.9l0,0
				c14.4,2.4,24.2,16.3,21.6,30.9l0,0c0,0.2-0.1,0.3-0.1,0.5l0,0c0,0.2,0,0.2-0.1,0.4l0,0l0,0l0,0c-2.5,14.6-16.2,24.3-30.6,21.7
				l0,0C354.8,249.6,345.3,236.3,347.2,222z M33.9,129c-12.7-7.3-17-23.7-9.7-36.5l0,0l0,0l0,0c7.3-12.8,23.4-17.2,36.1-9.9l0,0
				c12.7,7.3,17,23.7,9.7,36.5l0,0c-5.7,10-16.7,15-27.5,13l0,0C39.5,131.6,36.7,130.6,33.9,129z M329.3,118.3
				c-7.3-12.7-3-29.2,9.6-36.5l0,0c12.6-7.5,28.8-3.2,36.1,9.7l0,0c7.4,12.7,3.2,29-9.4,36.6l0,0c-5.8,3.3-12,4.2-17.9,3.2l0,0
				C340.2,129.9,333.5,125.4,329.3,118.3z M114.4,36.4c-5.1-14,2.1-29.4,15.7-34.5l0,0c13.8-5,29,2.1,33.9,16l0,0
				c5.1,13.8-1.9,29.2-15.6,34.4l0,0c-4.4,1.6-9.1,2-13.6,1.2l0,0C125.7,51.8,117.8,45.5,114.4,36.4z M250.7,51.9L250.7,51.9
				c-13.6-5-20.8-20.2-15.9-34.2l0,0c4.9-14,19.9-21.1,33.7-16.1l0,0l0,0l0,0c13.8,5,21,20.2,16,34.2l0,0
				c-4.5,12.4-17,19.6-29.5,17.4l0,0C253.6,52.9,252.2,52.5,250.7,51.9z"/>
			</g>
		</g>
	</g>
</svg>
